<svg width="22" height="21" viewBox="0 0 22 21" fill="none" xmlns="http://www.w3.org/2000/svg">
<path d="M12.404 16.584C13.468 16.584 14.4013 16.3507 15.204 15.884C16.0067 15.4173 16.6413 14.736 17.108 13.84H21.588C20.9347 15.8373 19.7867 17.396 18.144 18.516C16.52 19.6173 14.616 20.168 12.432 20.168C10.192 20.168 8.22267 19.5707 6.524 18.376C4.844 17.1627 3.67733 15.548 3.024 13.532H0.644V11.208H2.576C2.53867 10.76 2.52 10.424 2.52 10.2C2.52 9.93867 2.53867 9.584 2.576 9.136H0.644V6.812H3.052C3.70533 4.796 4.872 3.19067 6.552 1.996C8.25067 0.801333 10.2107 0.204 12.432 0.204C14.616 0.204 16.52 0.764 18.144 1.884C19.7867 3.004 20.9347 4.55333 21.588 6.532H17.108C16.6413 5.636 16.0067 4.964 15.204 4.516C14.4013 4.04933 13.468 3.816 12.404 3.816C11.2653 3.816 10.248 4.07733 9.352 4.6C8.47467 5.12267 7.79333 5.86 7.308 6.812H12.684V9.136H6.608C6.57067 9.584 6.552 9.93867 6.552 10.2C6.552 10.424 6.57067 10.76 6.608 11.208H12.684V13.532H7.28C7.76533 14.484 8.456 15.2307 9.352 15.772C10.248 16.3133 11.2653 16.584 12.404 16.584Z" fill="#ECFF78"/>
</svg>
